<?xml version="1.0" encoding="iso-8859-1"?>
<!-- Uploaded to: SVG Repo, www.svgrepo.com, Generator: SVG Repo Mixer Tools -->
<svg fill="#000000" height="800px" width="800px" version="1.1" id="Layer_1" xmlns="http://www.w3.org/2000/svg" xmlns:xlink="http://www.w3.org/1999/xlink" 
	 viewBox="0 0 512.14 512.14" xml:space="preserve">
<g>
	<g>
		<path d="M508.14,120.07H4c-2.212,0-4,1.788-4,4c0,105.192,61.164,197.924,156.072,237.036v26.964c0,2.212,1.788,4,4,4h184
			c2.212,0,4-1.788,3.996-4v-26.964C446.324,320.694,512.14,225.782,512.14,124.07C512.14,121.858,510.352,120.07,508.14,120.07z
			 M342.588,354.694c-1.52,0.612-2.516,2.08-2.516,3.716v25.66h-176v-25.66c0-1.636-0.996-3.108-2.516-3.716
			C69.488,317.906,9.576,229.238,8.032,128.07h496.076C502.392,225.882,437.92,316.602,342.588,354.694z"/>
	</g>
</g>
<g>
	<g>
		<path d="M292.072,352.07h-136c-2.212,0-4,1.788-4,4c0,2.212,1.788,4,4,4h136c2.212,0,4-1.788,4-4
			C296.072,353.858,294.284,352.07,292.072,352.07z"/>
	</g>
</g>
<g>
	<g>
		<path d="M348.072,352.07h-24c-2.212,0-4,1.788-4,4c0,2.212,1.788,4,4,4h24c2.212,0,4-1.788,4-4
			C352.072,353.858,350.284,352.07,348.072,352.07z"/>
	</g>
</g>
<g>
	<g>
		<path d="M476.168,197.666c-2.076-0.736-4.364,0.348-5.104,2.432c-9.988,28.16-25.228,53.772-45.3,76.124
			c-1.476,1.644-1.34,4.172,0.304,5.648c0.76,0.688,1.72,1.024,2.672,1.024c1.092,0,2.188-0.448,2.972-1.328
			c20.776-23.132,36.548-49.644,46.888-78.796C479.34,200.69,478.252,198.406,476.168,197.666z"/>
	</g>
</g>
<g>
	<g>
		<path d="M487.532,141.118c-2.216-0.208-4.144,1.42-4.348,3.62c-1.004,11.052-2.832,22.096-5.42,32.832
			c-0.52,2.144,0.8,4.308,2.948,4.824c0.312,0.076,0.628,0.112,0.94,0.112c1.804,0,3.44-1.228,3.884-3.06
			c2.684-11.108,4.572-22.544,5.616-33.98C491.352,143.266,489.732,141.322,487.532,141.118z"/>
	</g>
</g>
</svg>